<mxfile host="drawio-plugin" modified="2023-08-04T08:20:09.337Z" agent="5.0 (X11; Linux x86_64) AppleWebKit/537.36 (KHTML, like Gecko) Chrome/111.0.0.0 Safari/537.36" etag="xcgKZchdeUgJX2NFdSKF" version="20.5.3" type="embed"><diagram id="6a731a19-8d31-9384-78a2-239565b7b9f0" name="Page-1"><mxGraphModel dx="1666" dy="1071" grid="1" gridSize="10" guides="1" tooltips="1" connect="1" arrows="1" fold="1" page="1" pageScale="1" pageWidth="140" pageHeight="106" background="none" math="0" shadow="0"><root><mxCell id="0"/><mxCell id="1" parent="0"/><mxCell id="eoMGSKBOUgeIE6Lk5qr4-2288" value="Network routing rules" style="rounded=1;whiteSpace=wrap;html=1;fillColor=#dae8fc;strokeColor=#6c8ebf;fontSize=26;verticalAlign=top;" parent="1" vertex="1"><mxGeometry x="41" y="40" width="2439" height="560" as="geometry"/></mxCell><mxCell id="2183" style="edgeStyle=none;rounded=1;html=1;strokeColor=#23445D;endArrow=none;endFill=0;strokeWidth=4" parent="1" edge="1"><mxGeometry relative="1" as="geometry"><mxPoint x="2160.5" y="278" as="sourcePoint"/><mxPoint x="2071.5" y="278" as="targetPoint"/></mxGeometry></mxCell><mxCell id="eoMGSKBOUgeIE6Lk5qr4-2259" style="edgeStyle=none;rounded=1;html=1;strokeColor=#23445D;endArrow=none;endFill=0;strokeWidth=4;exitX=0.16;exitY=0.5;exitDx=0;exitDy=0;exitPerimeter=0;entryX=1;entryY=0;entryDx=0;entryDy=0;entryPerimeter=0;" parent="1" source="2173" target="eoMGSKBOUgeIE6Lk5qr4-2258" edge="1"><mxGeometry relative="1" as="geometry"><mxPoint x="830.5" y="278" as="sourcePoint"/></mxGeometry></mxCell><mxCell id="2182" style="edgeStyle=none;rounded=1;html=1;strokeColor=#23445D;endArrow=none;endFill=0;strokeWidth=4;entryX=0.997;entryY=0.445;entryDx=0;entryDy=0;entryPerimeter=0;exitX=0.04;exitY=0.464;exitDx=0;exitDy=0;exitPerimeter=0;" parent="1" source="eoMGSKBOUgeIE6Lk5qr4-2270" target="eoMGSKBOUgeIE6Lk5qr4-2266" edge="1"><mxGeometry relative="1" as="geometry"><mxPoint x="1776.5" y="280" as="sourcePoint"/><mxPoint x="1605.8700000000003" y="280" as="targetPoint"/></mxGeometry></mxCell><mxCell id="2181" style="edgeStyle=none;rounded=1;html=1;strokeColor=#23445D;endArrow=none;endFill=0;strokeWidth=4;exitX=0;exitY=0.5;exitDx=0;exitDy=0;exitPerimeter=0;entryX=0.98;entryY=0.5;entryDx=0;entryDy=0;entryPerimeter=0;" parent="1" source="eoMGSKBOUgeIE6Lk5qr4-2262" target="eoMGSKBOUgeIE6Lk5qr4-2258" edge="1"><mxGeometry relative="1" as="geometry"><mxPoint x="891.7399999999996" y="243" as="sourcePoint"/><mxPoint x="776.4989380530972" y="331" as="targetPoint"/></mxGeometry></mxCell><mxCell id="2114" value="&lt;font color=&quot;#000000&quot;&gt;s1 | src_entry&lt;/font&gt;" style="shape=mxgraph.cisco.switches.workgroup_switch;html=1;dashed=0;fillColor=#10739E;strokeColor=#ffffff;strokeWidth=2;verticalLabelPosition=bottom;verticalAlign=top;fontFamily=Helvetica;fontSize=26;fontColor=#FFB366" parent="1" vertex="1"><mxGeometry x="263.5" y="253" width="101" height="50" as="geometry"/></mxCell><mxCell id="2172" style="edgeStyle=none;rounded=1;html=1;strokeColor=#23445D;endArrow=none;endFill=0;strokeWidth=4;entryX=0.98;entryY=0.5;entryDx=0;entryDy=0;entryPerimeter=0;" parent="1" target="2180" edge="1"><mxGeometry relative="1" as="geometry"><mxPoint x="640.5" y="278" as="sourcePoint"/></mxGeometry></mxCell><mxCell id="eoMGSKBOUgeIE6Lk5qr4-2258" value="s3 | src_exit" style="shape=mxgraph.cisco.switches.workgroup_switch;html=1;dashed=0;fillColor=#10739E;strokeColor=#ffffff;strokeWidth=2;verticalLabelPosition=bottom;verticalAlign=top;fontFamily=Helvetica;fontSize=26;fontColor=#000000;" parent="1" vertex="1"><mxGeometry x="640.5" y="253" width="101" height="50" as="geometry"/></mxCell><mxCell id="eoMGSKBOUgeIE6Lk5qr4-2261" style="edgeStyle=none;rounded=1;html=1;strokeColor=#23445D;endArrow=none;endFill=0;strokeWidth=4;entryX=0.83;entryY=0.5;entryDx=0;entryDy=0;entryPerimeter=0;shape=link;exitX=0.103;exitY=0.497;exitDx=0;exitDy=0;exitPerimeter=0;" parent="1" source="eoMGSKBOUgeIE6Lk5qr4-2262" target="2173" edge="1"><mxGeometry relative="1" as="geometry"><mxPoint x="1020.5" y="278" as="sourcePoint"/><mxPoint x="931.5" y="278" as="targetPoint"/></mxGeometry></mxCell><mxCell id="eoMGSKBOUgeIE6Lk5qr4-2263" style="edgeStyle=none;rounded=1;html=1;strokeColor=#23445D;endArrow=none;endFill=0;strokeWidth=4;shape=link;exitX=0.108;exitY=0.504;exitDx=0;exitDy=0;exitPerimeter=0;" parent="1" source="eoMGSKBOUgeIE6Lk5qr4-2264" edge="1"><mxGeometry relative="1" as="geometry"><mxPoint x="1211.6000000000001" y="277.8499999999999" as="sourcePoint"/><mxPoint x="1112.5" y="277.94936497326194" as="targetPoint"/></mxGeometry></mxCell><mxCell id="eoMGSKBOUgeIE6Lk5qr4-2262" value="s4 | bn_begin" style="shape=mxgraph.cisco.switches.workgroup_switch;html=1;dashed=0;fillColor=#10739E;strokeColor=#ffffff;strokeWidth=2;verticalLabelPosition=bottom;verticalAlign=top;fontFamily=Helvetica;fontSize=26;fontColor=#000000;" parent="1" vertex="1"><mxGeometry x="1020.5" y="253" width="101" height="50" as="geometry"/></mxCell><mxCell id="eoMGSKBOUgeIE6Lk5qr4-2265" style="edgeStyle=none;rounded=1;html=1;strokeColor=#23445D;endArrow=none;endFill=0;strokeWidth=4;shape=link;exitX=0.16;exitY=0.497;exitDx=0;exitDy=0;exitPerimeter=0;" parent="1" source="eoMGSKBOUgeIE6Lk5qr4-2266" edge="1"><mxGeometry relative="1" as="geometry"><mxPoint x="1390.5" y="278" as="sourcePoint"/><mxPoint x="1301.5" y="278" as="targetPoint"/></mxGeometry></mxCell><mxCell id="eoMGSKBOUgeIE6Lk5qr4-2264" value="s5 | bn_tp" style="shape=mxgraph.cisco.switches.workgroup_switch;html=1;dashed=0;fillColor=#10739E;strokeColor=#ffffff;strokeWidth=2;verticalLabelPosition=bottom;verticalAlign=top;fontFamily=Helvetica;fontSize=26;fontColor=#000000;" parent="1" vertex="1"><mxGeometry x="1210.5" y="253" width="101" height="50" as="geometry"/></mxCell><mxCell id="eoMGSKBOUgeIE6Lk5qr4-2267" style="edgeStyle=none;rounded=1;html=1;strokeColor=#23445D;endArrow=none;endFill=0;strokeWidth=4;exitX=0.16;exitY=0.5;exitDx=0;exitDy=0;exitPerimeter=0;shape=link;" parent="1" source="2176" edge="1"><mxGeometry relative="1" as="geometry"><mxPoint x="1610.98" y="278" as="sourcePoint"/><mxPoint x="1490.5" y="278" as="targetPoint"/></mxGeometry></mxCell><mxCell id="eoMGSKBOUgeIE6Lk5qr4-2266" value="s6 | bn_end" style="shape=mxgraph.cisco.switches.workgroup_switch;html=1;dashed=0;fillColor=#10739E;strokeColor=#ffffff;strokeWidth=2;verticalLabelPosition=bottom;verticalAlign=top;fontFamily=Helvetica;fontSize=26;fontColor=#000000;" parent="1" vertex="1"><mxGeometry x="1400.5" y="253" width="101" height="50" as="geometry"/></mxCell><mxCell id="eoMGSKBOUgeIE6Lk5qr4-2269" style="edgeStyle=none;rounded=1;html=1;strokeColor=#23445D;endArrow=none;endFill=0;strokeWidth=4;entryX=0.83;entryY=0.5;entryDx=0;entryDy=0;entryPerimeter=0;exitX=0.299;exitY=-0.012;exitDx=0;exitDy=0;exitPerimeter=0;" parent="1" source="eoMGSKBOUgeIE6Lk5qr4-2270" target="2176" edge="1"><mxGeometry relative="1" as="geometry"><mxPoint x="1780.5" y="278" as="sourcePoint"/><mxPoint x="1691.5" y="278" as="targetPoint"/></mxGeometry></mxCell><mxCell id="eoMGSKBOUgeIE6Lk5qr4-2270" value="s7 | dst_entry" style="shape=mxgraph.cisco.switches.workgroup_switch;html=1;dashed=0;fillColor=#10739E;strokeColor=#ffffff;strokeWidth=2;verticalLabelPosition=bottom;verticalAlign=top;fontFamily=Helvetica;fontSize=26;fontColor=#000000;" parent="1" vertex="1"><mxGeometry x="1780.5" y="253" width="101" height="50" as="geometry"/></mxCell><mxCell id="eoMGSKBOUgeIE6Lk5qr4-2271" style="edgeStyle=none;rounded=1;html=1;strokeColor=#23445D;endArrow=none;endFill=0;strokeWidth=4" parent="1" target="eoMGSKBOUgeIE6Lk5qr4-2270" edge="1"><mxGeometry relative="1" as="geometry"><mxPoint x="1970.5" y="278" as="sourcePoint"/></mxGeometry></mxCell><mxCell id="eoMGSKBOUgeIE6Lk5qr4-2272" value="s8 | dst_tp" style="shape=mxgraph.cisco.switches.workgroup_switch;html=1;dashed=0;fillColor=#10739E;strokeColor=#ffffff;strokeWidth=2;verticalLabelPosition=bottom;verticalAlign=top;fontFamily=Helvetica;fontSize=26;fontColor=#000000;" parent="1" vertex="1"><mxGeometry x="1970.5" y="253" width="101" height="50" as="geometry"/></mxCell><mxCell id="eoMGSKBOUgeIE6Lk5qr4-2275" value="h1 | src" style="shape=mxgraph.cisco.computers_and_peripherals.pc;sketch=0;html=1;pointerEvents=1;dashed=0;fillColor=#036897;strokeColor=#ffffff;strokeWidth=2;verticalLabelPosition=bottom;verticalAlign=top;align=center;outlineConnect=0;fontColor=#000000;fontSize=26;" parent="1" vertex="1"><mxGeometry x="63.5" y="243" width="78" height="70" as="geometry"/></mxCell><mxCell id="eoMGSKBOUgeIE6Lk5qr4-2277" style="edgeStyle=none;rounded=1;html=1;strokeColor=#23445D;endArrow=none;endFill=0;strokeWidth=4;exitX=0;exitY=0.5;exitDx=0;exitDy=0;exitPerimeter=0;" parent="1" source="2114" target="eoMGSKBOUgeIE6Lk5qr4-2275" edge="1"><mxGeometry relative="1" as="geometry"><mxPoint x="263.5" y="277.5" as="sourcePoint"/><mxPoint x="174.5" y="277.5" as="targetPoint"/></mxGeometry></mxCell><mxCell id="2173" value="vpn1&lt;br&gt;tun_entry" style="shape=mxgraph.cisco.computers_and_peripherals.pc;sketch=0;html=1;pointerEvents=1;dashed=0;fillColor=#036897;strokeColor=#ffffff;strokeWidth=2;verticalLabelPosition=bottom;verticalAlign=top;align=center;outlineConnect=0;fontColor=#000000;fontSize=26;" parent="1" vertex="1"><mxGeometry x="826.5" y="130" width="78" height="70" as="geometry"/></mxCell><mxCell id="2176" value="vpn2&lt;br&gt;tun_exit" style="shape=mxgraph.cisco.computers_and_peripherals.pc;sketch=0;html=1;pointerEvents=1;dashed=0;fillColor=#036897;strokeColor=#ffffff;strokeWidth=2;verticalLabelPosition=bottom;verticalAlign=top;align=center;outlineConnect=0;fontColor=#000000;fontSize=26;" parent="1" vertex="1"><mxGeometry x="1616.5" y="130" width="78" height="70" as="geometry"/></mxCell><mxCell id="2179" style="edgeStyle=none;rounded=1;html=1;strokeColor=#23445D;endArrow=none;endFill=0;strokeWidth=4;entryX=0.98;entryY=0.5;entryDx=0;entryDy=0;entryPerimeter=0;" parent="1" target="2114" edge="1"><mxGeometry relative="1" as="geometry"><mxPoint x="450.5" y="278" as="sourcePoint"/><mxPoint x="361.5" y="278" as="targetPoint"/></mxGeometry></mxCell><mxCell id="2180" value="s2 | src_tp" style="shape=mxgraph.cisco.switches.workgroup_switch;html=1;dashed=0;fillColor=#10739E;strokeColor=#ffffff;strokeWidth=2;verticalLabelPosition=bottom;verticalAlign=top;fontFamily=Helvetica;fontSize=26;fontColor=#000000;" parent="1" vertex="1"><mxGeometry x="450.5" y="253" width="101" height="50" as="geometry"/></mxCell><mxCell id="2184" value="s9 | dst_exit" style="shape=mxgraph.cisco.switches.workgroup_switch;html=1;dashed=0;fillColor=#10739E;strokeColor=#ffffff;strokeWidth=2;verticalLabelPosition=bottom;verticalAlign=top;fontFamily=Helvetica;fontSize=26;fontColor=#000000;" parent="1" vertex="1"><mxGeometry x="2160.5" y="253" width="101" height="50" as="geometry"/></mxCell><mxCell id="2185" style="edgeStyle=none;rounded=1;html=1;strokeColor=#23445D;endArrow=none;endFill=0;strokeWidth=4;exitX=0;exitY=0.5;exitDx=0;exitDy=0;exitPerimeter=0;" parent="1" edge="1"><mxGeometry relative="1" as="geometry"><mxPoint x="2383.5" y="277.76" as="sourcePoint"/><mxPoint x="2261.5000000000005" y="277.76" as="targetPoint"/></mxGeometry></mxCell><mxCell id="2186" value="h2 | dst" style="shape=mxgraph.cisco.computers_and_peripherals.pc;sketch=0;html=1;pointerEvents=1;dashed=0;fillColor=#036897;strokeColor=#ffffff;strokeWidth=2;verticalLabelPosition=bottom;verticalAlign=top;align=center;outlineConnect=0;fontColor=#000000;fontSize=26;" parent="1" vertex="1"><mxGeometry x="2372.5" y="243" width="78" height="70" as="geometry"/></mxCell><mxCell id="2191" value="" style="shape=table;startSize=0;container=1;collapsible=0;childLayout=tableLayout;fontColor=#080808;labelBackgroundColor=#FFFFFF;labelBorderColor=#050505;" parent="1" vertex="1"><mxGeometry x="219.75" y="350" width="182.5" height="160" as="geometry"/></mxCell><mxCell id="2192" value="" style="shape=tableRow;horizontal=0;startSize=0;swimlaneHead=0;swimlaneBody=0;top=0;left=0;bottom=0;right=0;collapsible=0;dropTarget=0;fillColor=none;points=[[0,0.5],[1,0.5]];portConstraint=eastwest;" parent="2191" vertex="1"><mxGeometry width="182.5" height="30" as="geometry"/></mxCell><mxCell id="2193" value="Match" style="shape=partialRectangle;html=1;whiteSpace=wrap;connectable=0;overflow=hidden;fillColor=none;top=0;left=0;bottom=0;right=0;pointerEvents=1;" parent="2192" vertex="1"><mxGeometry width="92" height="30" as="geometry"><mxRectangle width="92" height="30" as="alternateBounds"/></mxGeometry></mxCell><mxCell id="2194" value="Actions" style="shape=partialRectangle;html=1;whiteSpace=wrap;connectable=0;overflow=hidden;fillColor=none;top=0;left=0;bottom=0;right=0;pointerEvents=1;" parent="2192" vertex="1"><mxGeometry x="92" width="91" height="30" as="geometry"><mxRectangle width="91" height="30" as="alternateBounds"/></mxGeometry></mxCell><mxCell id="2196" value="" style="shape=tableRow;horizontal=0;startSize=0;swimlaneHead=0;swimlaneBody=0;top=0;left=0;bottom=0;right=0;collapsible=0;dropTarget=0;fillColor=none;points=[[0,0.5],[1,0.5]];portConstraint=eastwest;" parent="2191" vertex="1"><mxGeometry y="30" width="182.5" height="80" as="geometry"/></mxCell><mxCell id="2197" value="from=h1&lt;br&gt;intf + addr, to=h2 with port" style="shape=partialRectangle;html=1;whiteSpace=wrap;connectable=0;overflow=hidden;fillColor=none;top=0;left=0;bottom=0;right=0;pointerEvents=1;" parent="2196" vertex="1"><mxGeometry width="92" height="80" as="geometry"><mxRectangle width="92" height="80" as="alternateBounds"/></mxGeometry></mxCell><mxCell id="2198" value="push mpls=slice_id, forward s2,&amp;nbsp;enqueue slicequeue" style="shape=partialRectangle;html=1;whiteSpace=wrap;connectable=0;overflow=hidden;fillColor=none;top=0;left=0;bottom=0;right=0;pointerEvents=1;" parent="2196" vertex="1"><mxGeometry x="92" width="91" height="80" as="geometry"><mxRectangle width="91" height="80" as="alternateBounds"/></mxGeometry></mxCell><mxCell id="2200" value="" style="shape=tableRow;horizontal=0;startSize=0;swimlaneHead=0;swimlaneBody=0;top=0;left=0;bottom=0;right=0;collapsible=0;dropTarget=0;fillColor=none;points=[[0,0.5],[1,0.5]];portConstraint=eastwest;" parent="2191" vertex="1"><mxGeometry y="110" width="182.5" height="50" as="geometry"/></mxCell><mxCell id="2201" value="*" style="shape=partialRectangle;html=1;whiteSpace=wrap;connectable=0;overflow=hidden;fillColor=none;top=0;left=0;bottom=0;right=0;pointerEvents=1;" parent="2200" vertex="1"><mxGeometry width="92" height="50" as="geometry"><mxRectangle width="92" height="50" as="alternateBounds"/></mxGeometry></mxCell><mxCell id="2202" value="forward, enqueue default" style="shape=partialRectangle;html=1;whiteSpace=wrap;connectable=0;overflow=hidden;fillColor=none;top=0;left=0;bottom=0;right=0;pointerEvents=1;" parent="2200" vertex="1"><mxGeometry x="92" width="91" height="50" as="geometry"><mxRectangle width="91" height="50" as="alternateBounds"/></mxGeometry></mxCell><mxCell id="2204" value="" style="shape=table;startSize=0;container=1;collapsible=0;childLayout=tableLayout;fontColor=#080808;labelBackgroundColor=#FFFFFF;labelBorderColor=#050505;" parent="1" vertex="1"><mxGeometry x="409.75" y="350" width="182.5" height="160" as="geometry"/></mxCell><mxCell id="2205" value="" style="shape=tableRow;horizontal=0;startSize=0;swimlaneHead=0;swimlaneBody=0;top=0;left=0;bottom=0;right=0;collapsible=0;dropTarget=0;fillColor=none;points=[[0,0.5],[1,0.5]];portConstraint=eastwest;" parent="2204" vertex="1"><mxGeometry width="182.5" height="30" as="geometry"/></mxCell><mxCell id="2206" value="Match" style="shape=partialRectangle;html=1;whiteSpace=wrap;connectable=0;overflow=hidden;fillColor=none;top=0;left=0;bottom=0;right=0;pointerEvents=1;" parent="2205" vertex="1"><mxGeometry width="92" height="30" as="geometry"><mxRectangle width="92" height="30" as="alternateBounds"/></mxGeometry></mxCell><mxCell id="2207" value="Actions" style="shape=partialRectangle;html=1;whiteSpace=wrap;connectable=0;overflow=hidden;fillColor=none;top=0;left=0;bottom=0;right=0;pointerEvents=1;" parent="2205" vertex="1"><mxGeometry x="92" width="91" height="30" as="geometry"><mxRectangle width="91" height="30" as="alternateBounds"/></mxGeometry></mxCell><mxCell id="2208" value="" style="shape=tableRow;horizontal=0;startSize=0;swimlaneHead=0;swimlaneBody=0;top=0;left=0;bottom=0;right=0;collapsible=0;dropTarget=0;fillColor=none;points=[[0,0.5],[1,0.5]];portConstraint=eastwest;" parent="2204" vertex="1"><mxGeometry y="30" width="182.5" height="80" as="geometry"/></mxCell><mxCell id="2209" value="mpls=slice_id&lt;br&gt;from=s1 intf" style="shape=partialRectangle;html=1;whiteSpace=wrap;connectable=0;overflow=hidden;fillColor=none;top=0;left=0;bottom=0;right=0;pointerEvents=1;" parent="2208" vertex="1"><mxGeometry width="92" height="80" as="geometry"><mxRectangle width="92" height="80" as="alternateBounds"/></mxGeometry></mxCell><mxCell id="2210" value="forward s3, enqueue slicequeue" style="shape=partialRectangle;html=1;whiteSpace=wrap;connectable=0;overflow=hidden;fillColor=none;top=0;left=0;bottom=0;right=0;pointerEvents=1;" parent="2208" vertex="1"><mxGeometry x="92" width="91" height="80" as="geometry"><mxRectangle width="91" height="80" as="alternateBounds"/></mxGeometry></mxCell><mxCell id="2211" value="" style="shape=tableRow;horizontal=0;startSize=0;swimlaneHead=0;swimlaneBody=0;top=0;left=0;bottom=0;right=0;collapsible=0;dropTarget=0;fillColor=none;points=[[0,0.5],[1,0.5]];portConstraint=eastwest;" parent="2204" vertex="1"><mxGeometry y="110" width="182.5" height="50" as="geometry"/></mxCell><mxCell id="2212" value="*" style="shape=partialRectangle;html=1;whiteSpace=wrap;connectable=0;overflow=hidden;fillColor=none;top=0;left=0;bottom=0;right=0;pointerEvents=1;" parent="2211" vertex="1"><mxGeometry width="92" height="50" as="geometry"><mxRectangle width="92" height="50" as="alternateBounds"/></mxGeometry></mxCell><mxCell id="2213" value="forward, enqueue default" style="shape=partialRectangle;html=1;whiteSpace=wrap;connectable=0;overflow=hidden;fillColor=none;top=0;left=0;bottom=0;right=0;pointerEvents=1;" parent="2211" vertex="1"><mxGeometry x="92" width="91" height="50" as="geometry"><mxRectangle width="91" height="50" as="alternateBounds"/></mxGeometry></mxCell><mxCell id="2214" value="" style="shape=table;startSize=0;container=1;collapsible=0;childLayout=tableLayout;fontColor=#080808;labelBackgroundColor=#FFFFFF;labelBorderColor=#050505;" parent="1" vertex="1"><mxGeometry x="599.75" y="350" width="182.5" height="160" as="geometry"/></mxCell><mxCell id="2215" value="" style="shape=tableRow;horizontal=0;startSize=0;swimlaneHead=0;swimlaneBody=0;top=0;left=0;bottom=0;right=0;collapsible=0;dropTarget=0;fillColor=none;points=[[0,0.5],[1,0.5]];portConstraint=eastwest;" parent="2214" vertex="1"><mxGeometry width="182.5" height="30" as="geometry"/></mxCell><mxCell id="2216" value="Match" style="shape=partialRectangle;html=1;whiteSpace=wrap;connectable=0;overflow=hidden;fillColor=none;top=0;left=0;bottom=0;right=0;pointerEvents=1;" parent="2215" vertex="1"><mxGeometry width="92" height="30" as="geometry"><mxRectangle width="92" height="30" as="alternateBounds"/></mxGeometry></mxCell><mxCell id="2217" value="Actions" style="shape=partialRectangle;html=1;whiteSpace=wrap;connectable=0;overflow=hidden;fillColor=none;top=0;left=0;bottom=0;right=0;pointerEvents=1;" parent="2215" vertex="1"><mxGeometry x="92" width="91" height="30" as="geometry"><mxRectangle width="91" height="30" as="alternateBounds"/></mxGeometry></mxCell><mxCell id="2218" value="" style="shape=tableRow;horizontal=0;startSize=0;swimlaneHead=0;swimlaneBody=0;top=0;left=0;bottom=0;right=0;collapsible=0;dropTarget=0;fillColor=none;points=[[0,0.5],[1,0.5]];portConstraint=eastwest;" parent="2214" vertex="1"><mxGeometry y="30" width="182.5" height="80" as="geometry"/></mxCell><mxCell id="2219" value="mpls=slice_id&lt;br&gt;from=s2 intf" style="shape=partialRectangle;html=1;whiteSpace=wrap;connectable=0;overflow=hidden;fillColor=none;top=0;left=0;bottom=0;right=0;pointerEvents=1;" parent="2218" vertex="1"><mxGeometry width="92" height="80" as="geometry"><mxRectangle width="92" height="80" as="alternateBounds"/></mxGeometry></mxCell><mxCell id="2220" value="forward vpn1, enqueue slicequeue" style="shape=partialRectangle;html=1;whiteSpace=wrap;connectable=0;overflow=hidden;fillColor=none;top=0;left=0;bottom=0;right=0;pointerEvents=1;" parent="2218" vertex="1"><mxGeometry x="92" width="91" height="80" as="geometry"><mxRectangle width="91" height="80" as="alternateBounds"/></mxGeometry></mxCell><mxCell id="2221" value="" style="shape=tableRow;horizontal=0;startSize=0;swimlaneHead=0;swimlaneBody=0;top=0;left=0;bottom=0;right=0;collapsible=0;dropTarget=0;fillColor=none;points=[[0,0.5],[1,0.5]];portConstraint=eastwest;" parent="2214" vertex="1"><mxGeometry y="110" width="182.5" height="50" as="geometry"/></mxCell><mxCell id="2222" value="*" style="shape=partialRectangle;html=1;whiteSpace=wrap;connectable=0;overflow=hidden;fillColor=none;top=0;left=0;bottom=0;right=0;pointerEvents=1;" parent="2221" vertex="1"><mxGeometry width="92" height="50" as="geometry"><mxRectangle width="92" height="50" as="alternateBounds"/></mxGeometry></mxCell><mxCell id="2223" value="forward, enqueue default" style="shape=partialRectangle;html=1;whiteSpace=wrap;connectable=0;overflow=hidden;fillColor=none;top=0;left=0;bottom=0;right=0;pointerEvents=1;" parent="2221" vertex="1"><mxGeometry x="92" width="91" height="50" as="geometry"><mxRectangle width="91" height="50" as="alternateBounds"/></mxGeometry></mxCell><mxCell id="2224" value="" style="shape=table;startSize=0;container=1;collapsible=0;childLayout=tableLayout;fontColor=#080808;labelBackgroundColor=#FFFFFF;labelBorderColor=#050505;" parent="1" vertex="1"><mxGeometry x="980.5" y="350" width="182.5" height="230" as="geometry"/></mxCell><mxCell id="2225" value="" style="shape=tableRow;horizontal=0;startSize=0;swimlaneHead=0;swimlaneBody=0;top=0;left=0;bottom=0;right=0;collapsible=0;dropTarget=0;fillColor=none;points=[[0,0.5],[1,0.5]];portConstraint=eastwest;" parent="2224" vertex="1"><mxGeometry width="182.5" height="30" as="geometry"/></mxCell><mxCell id="2226" value="Match" style="shape=partialRectangle;html=1;whiteSpace=wrap;connectable=0;overflow=hidden;fillColor=none;top=0;left=0;bottom=0;right=0;pointerEvents=1;" parent="2225" vertex="1"><mxGeometry width="92" height="30" as="geometry"><mxRectangle width="92" height="30" as="alternateBounds"/></mxGeometry></mxCell><mxCell id="2227" value="Actions" style="shape=partialRectangle;html=1;whiteSpace=wrap;connectable=0;overflow=hidden;fillColor=none;top=0;left=0;bottom=0;right=0;pointerEvents=1;" parent="2225" vertex="1"><mxGeometry x="92" width="91" height="30" as="geometry"><mxRectangle width="91" height="30" as="alternateBounds"/></mxGeometry></mxCell><mxCell id="2228" value="" style="shape=tableRow;horizontal=0;startSize=0;swimlaneHead=0;swimlaneBody=0;top=0;left=0;bottom=0;right=0;collapsible=0;dropTarget=0;fillColor=none;points=[[0,0.5],[1,0.5]];portConstraint=eastwest;" parent="2224" vertex="1"><mxGeometry y="30" width="182.5" height="80" as="geometry"/></mxCell><mxCell id="2229" value="from=vpn1&lt;br&gt;intf + addr, to=vpn2 with port" style="shape=partialRectangle;html=1;whiteSpace=wrap;connectable=0;overflow=hidden;fillColor=none;top=0;left=0;bottom=0;right=0;pointerEvents=1;" parent="2228" vertex="1"><mxGeometry width="92" height="80" as="geometry"><mxRectangle width="92" height="80" as="alternateBounds"/></mxGeometry></mxCell><mxCell id="2230" value="push mpls= tunnel_id, forward s5,&amp;nbsp;&lt;br&gt;enqueue tunnelqueue" style="shape=partialRectangle;html=1;whiteSpace=wrap;connectable=0;overflow=hidden;fillColor=none;top=0;left=0;bottom=0;right=0;pointerEvents=1;" parent="2228" vertex="1"><mxGeometry x="92" width="91" height="80" as="geometry"><mxRectangle width="91" height="80" as="alternateBounds"/></mxGeometry></mxCell><mxCell id="2309" style="shape=tableRow;horizontal=0;startSize=0;swimlaneHead=0;swimlaneBody=0;top=0;left=0;bottom=0;right=0;collapsible=0;dropTarget=0;fillColor=none;points=[[0,0.5],[1,0.5]];portConstraint=eastwest;" parent="2224" vertex="1"><mxGeometry y="110" width="182.5" height="80" as="geometry"/></mxCell><mxCell id="2310" value="mpls=&lt;br&gt;tunnel_id,&lt;br&gt;from=s5 intf" style="shape=partialRectangle;html=1;whiteSpace=wrap;connectable=0;overflow=hidden;fillColor=none;top=0;left=0;bottom=0;right=0;pointerEvents=1;" parent="2309" vertex="1"><mxGeometry width="92" height="80" as="geometry"><mxRectangle width="92" height="80" as="alternateBounds"/></mxGeometry></mxCell><mxCell id="2311" value="forward vpn1,&lt;br&gt;pop mpls, enqueue reversequeue" style="shape=partialRectangle;html=1;whiteSpace=wrap;connectable=0;overflow=hidden;fillColor=none;top=0;left=0;bottom=0;right=0;pointerEvents=1;" parent="2309" vertex="1"><mxGeometry x="92" width="91" height="80" as="geometry"><mxRectangle width="91" height="80" as="alternateBounds"/></mxGeometry></mxCell><mxCell id="2231" value="" style="shape=tableRow;horizontal=0;startSize=0;swimlaneHead=0;swimlaneBody=0;top=0;left=0;bottom=0;right=0;collapsible=0;dropTarget=0;fillColor=none;points=[[0,0.5],[1,0.5]];portConstraint=eastwest;" parent="2224" vertex="1"><mxGeometry y="190" width="182.5" height="40" as="geometry"/></mxCell><mxCell id="2232" value="*" style="shape=partialRectangle;html=1;whiteSpace=wrap;connectable=0;overflow=hidden;fillColor=none;top=0;left=0;bottom=0;right=0;pointerEvents=1;" parent="2231" vertex="1"><mxGeometry width="92" height="40" as="geometry"><mxRectangle width="92" height="40" as="alternateBounds"/></mxGeometry></mxCell><mxCell id="2233" value="forward, enqueue default" style="shape=partialRectangle;html=1;whiteSpace=wrap;connectable=0;overflow=hidden;fillColor=none;top=0;left=0;bottom=0;right=0;pointerEvents=1;" parent="2231" vertex="1"><mxGeometry x="92" width="91" height="40" as="geometry"><mxRectangle width="91" height="40" as="alternateBounds"/></mxGeometry></mxCell><mxCell id="2234" value="" style="shape=table;startSize=0;container=1;collapsible=0;childLayout=tableLayout;fontColor=#080808;labelBackgroundColor=#FFFFFF;labelBorderColor=#050505;" parent="1" vertex="1"><mxGeometry x="1170.5" y="350" width="182.5" height="230" as="geometry"/></mxCell><mxCell id="2235" value="" style="shape=tableRow;horizontal=0;startSize=0;swimlaneHead=0;swimlaneBody=0;top=0;left=0;bottom=0;right=0;collapsible=0;dropTarget=0;fillColor=none;points=[[0,0.5],[1,0.5]];portConstraint=eastwest;" parent="2234" vertex="1"><mxGeometry width="182.5" height="30" as="geometry"/></mxCell><mxCell id="2236" value="Match" style="shape=partialRectangle;html=1;whiteSpace=wrap;connectable=0;overflow=hidden;fillColor=none;top=0;left=0;bottom=0;right=0;pointerEvents=1;" parent="2235" vertex="1"><mxGeometry width="92" height="30" as="geometry"><mxRectangle width="92" height="30" as="alternateBounds"/></mxGeometry></mxCell><mxCell id="2237" value="Actions" style="shape=partialRectangle;html=1;whiteSpace=wrap;connectable=0;overflow=hidden;fillColor=none;top=0;left=0;bottom=0;right=0;pointerEvents=1;" parent="2235" vertex="1"><mxGeometry x="92" width="91" height="30" as="geometry"><mxRectangle width="91" height="30" as="alternateBounds"/></mxGeometry></mxCell><mxCell id="2238" value="" style="shape=tableRow;horizontal=0;startSize=0;swimlaneHead=0;swimlaneBody=0;top=0;left=0;bottom=0;right=0;collapsible=0;dropTarget=0;fillColor=none;points=[[0,0.5],[1,0.5]];portConstraint=eastwest;" parent="2234" vertex="1"><mxGeometry y="30" width="182.5" height="80" as="geometry"/></mxCell><mxCell id="2239" value="mpls=&lt;br&gt;tunnel_id,&lt;br&gt;from=s4 intf" style="shape=partialRectangle;html=1;whiteSpace=wrap;connectable=0;overflow=hidden;fillColor=none;top=0;left=0;bottom=0;right=0;pointerEvents=1;" parent="2238" vertex="1"><mxGeometry width="92" height="80" as="geometry"><mxRectangle width="92" height="80" as="alternateBounds"/></mxGeometry></mxCell><mxCell id="2240" value="forward s6, enqueue tunnelqueue" style="shape=partialRectangle;html=1;whiteSpace=wrap;connectable=0;overflow=hidden;fillColor=none;top=0;left=0;bottom=0;right=0;pointerEvents=1;" parent="2238" vertex="1"><mxGeometry x="92" width="91" height="80" as="geometry"><mxRectangle width="91" height="80" as="alternateBounds"/></mxGeometry></mxCell><mxCell id="2312" style="shape=tableRow;horizontal=0;startSize=0;swimlaneHead=0;swimlaneBody=0;top=0;left=0;bottom=0;right=0;collapsible=0;dropTarget=0;fillColor=none;points=[[0,0.5],[1,0.5]];portConstraint=eastwest;" parent="2234" vertex="1"><mxGeometry y="110" width="182.5" height="80" as="geometry"/></mxCell><mxCell id="2313" value="mpls=&lt;br&gt;tunnel_id,&lt;br&gt;from=s6 intf" style="shape=partialRectangle;html=1;whiteSpace=wrap;connectable=0;overflow=hidden;fillColor=none;top=0;left=0;bottom=0;right=0;pointerEvents=1;" parent="2312" vertex="1"><mxGeometry width="92" height="80" as="geometry"><mxRectangle width="92" height="80" as="alternateBounds"/></mxGeometry></mxCell><mxCell id="2314" value="forward s4, enqueue reversequeue" style="shape=partialRectangle;html=1;whiteSpace=wrap;connectable=0;overflow=hidden;fillColor=none;top=0;left=0;bottom=0;right=0;pointerEvents=1;" parent="2312" vertex="1"><mxGeometry x="92" width="91" height="80" as="geometry"><mxRectangle width="91" height="80" as="alternateBounds"/></mxGeometry></mxCell><mxCell id="2241" value="" style="shape=tableRow;horizontal=0;startSize=0;swimlaneHead=0;swimlaneBody=0;top=0;left=0;bottom=0;right=0;collapsible=0;dropTarget=0;fillColor=none;points=[[0,0.5],[1,0.5]];portConstraint=eastwest;" parent="2234" vertex="1"><mxGeometry y="190" width="182.5" height="40" as="geometry"/></mxCell><mxCell id="2242" value="*" style="shape=partialRectangle;html=1;whiteSpace=wrap;connectable=0;overflow=hidden;fillColor=none;top=0;left=0;bottom=0;right=0;pointerEvents=1;" parent="2241" vertex="1"><mxGeometry width="92" height="40" as="geometry"><mxRectangle width="92" height="40" as="alternateBounds"/></mxGeometry></mxCell><mxCell id="2243" value="forward, enqueue default" style="shape=partialRectangle;html=1;whiteSpace=wrap;connectable=0;overflow=hidden;fillColor=none;top=0;left=0;bottom=0;right=0;pointerEvents=1;" parent="2241" vertex="1"><mxGeometry x="92" width="91" height="40" as="geometry"><mxRectangle width="91" height="40" as="alternateBounds"/></mxGeometry></mxCell><mxCell id="2244" value="" style="shape=table;startSize=0;container=1;collapsible=0;childLayout=tableLayout;fontColor=#080808;labelBackgroundColor=#FFFFFF;labelBorderColor=#050505;" parent="1" vertex="1"><mxGeometry x="1360.5" y="350" width="182.5" height="230" as="geometry"/></mxCell><mxCell id="2245" value="" style="shape=tableRow;horizontal=0;startSize=0;swimlaneHead=0;swimlaneBody=0;top=0;left=0;bottom=0;right=0;collapsible=0;dropTarget=0;fillColor=none;points=[[0,0.5],[1,0.5]];portConstraint=eastwest;" parent="2244" vertex="1"><mxGeometry width="182.5" height="30" as="geometry"/></mxCell><mxCell id="2246" value="Match" style="shape=partialRectangle;html=1;whiteSpace=wrap;connectable=0;overflow=hidden;fillColor=none;top=0;left=0;bottom=0;right=0;pointerEvents=1;" parent="2245" vertex="1"><mxGeometry width="92" height="30" as="geometry"><mxRectangle width="92" height="30" as="alternateBounds"/></mxGeometry></mxCell><mxCell id="2247" value="Actions" style="shape=partialRectangle;html=1;whiteSpace=wrap;connectable=0;overflow=hidden;fillColor=none;top=0;left=0;bottom=0;right=0;pointerEvents=1;" parent="2245" vertex="1"><mxGeometry x="92" width="91" height="30" as="geometry"><mxRectangle width="91" height="30" as="alternateBounds"/></mxGeometry></mxCell><mxCell id="2248" value="" style="shape=tableRow;horizontal=0;startSize=0;swimlaneHead=0;swimlaneBody=0;top=0;left=0;bottom=0;right=0;collapsible=0;dropTarget=0;fillColor=none;points=[[0,0.5],[1,0.5]];portConstraint=eastwest;" parent="2244" vertex="1"><mxGeometry y="30" width="182.5" height="80" as="geometry"/></mxCell><mxCell id="2249" value="mpls=&lt;br&gt;tunnel_id,&lt;br&gt;from=s5 intf" style="shape=partialRectangle;html=1;whiteSpace=wrap;connectable=0;overflow=hidden;fillColor=none;top=0;left=0;bottom=0;right=0;pointerEvents=1;" parent="2248" vertex="1"><mxGeometry width="92" height="80" as="geometry"><mxRectangle width="92" height="80" as="alternateBounds"/></mxGeometry></mxCell><mxCell id="2250" value="forward vpn2,&lt;br&gt;pop mpls, enqueue tunnelqueue" style="shape=partialRectangle;html=1;whiteSpace=wrap;connectable=0;overflow=hidden;fillColor=none;top=0;left=0;bottom=0;right=0;pointerEvents=1;" parent="2248" vertex="1"><mxGeometry x="92" width="91" height="80" as="geometry"><mxRectangle width="91" height="80" as="alternateBounds"/></mxGeometry></mxCell><mxCell id="2315" style="shape=tableRow;horizontal=0;startSize=0;swimlaneHead=0;swimlaneBody=0;top=0;left=0;bottom=0;right=0;collapsible=0;dropTarget=0;fillColor=none;points=[[0,0.5],[1,0.5]];portConstraint=eastwest;" parent="2244" vertex="1"><mxGeometry y="110" width="182.5" height="80" as="geometry"/></mxCell><mxCell id="2316" value="from=vpn2&lt;br&gt;intf + addr, to=vpn1 with port" style="shape=partialRectangle;html=1;whiteSpace=wrap;connectable=0;overflow=hidden;fillColor=none;top=0;left=0;bottom=0;right=0;pointerEvents=1;" parent="2315" vertex="1"><mxGeometry width="92" height="80" as="geometry"><mxRectangle width="92" height="80" as="alternateBounds"/></mxGeometry></mxCell><mxCell id="2317" value="push mpls= tunnel_id, forward s5,&amp;nbsp;&lt;br&gt;enqueue reversequeue" style="shape=partialRectangle;html=1;whiteSpace=wrap;connectable=0;overflow=hidden;fillColor=none;top=0;left=0;bottom=0;right=0;pointerEvents=1;" parent="2315" vertex="1"><mxGeometry x="92" width="91" height="80" as="geometry"><mxRectangle width="91" height="80" as="alternateBounds"/></mxGeometry></mxCell><mxCell id="2251" value="" style="shape=tableRow;horizontal=0;startSize=0;swimlaneHead=0;swimlaneBody=0;top=0;left=0;bottom=0;right=0;collapsible=0;dropTarget=0;fillColor=none;points=[[0,0.5],[1,0.5]];portConstraint=eastwest;" parent="2244" vertex="1"><mxGeometry y="190" width="182.5" height="40" as="geometry"/></mxCell><mxCell id="2252" value="*" style="shape=partialRectangle;html=1;whiteSpace=wrap;connectable=0;overflow=hidden;fillColor=none;top=0;left=0;bottom=0;right=0;pointerEvents=1;" parent="2251" vertex="1"><mxGeometry width="92" height="40" as="geometry"><mxRectangle width="92" height="40" as="alternateBounds"/></mxGeometry></mxCell><mxCell id="2253" value="forward, enqueue default" style="shape=partialRectangle;html=1;whiteSpace=wrap;connectable=0;overflow=hidden;fillColor=none;top=0;left=0;bottom=0;right=0;pointerEvents=1;" parent="2251" vertex="1"><mxGeometry x="92" width="91" height="40" as="geometry"><mxRectangle width="91" height="40" as="alternateBounds"/></mxGeometry></mxCell><mxCell id="2254" value="" style="shape=table;startSize=0;container=1;collapsible=0;childLayout=tableLayout;fontColor=#080808;labelBackgroundColor=#FFFFFF;labelBorderColor=#050505;" parent="1" vertex="1"><mxGeometry x="1740.5" y="350" width="182.5" height="160.19444444444434" as="geometry"/></mxCell><mxCell id="2255" value="" style="shape=tableRow;horizontal=0;startSize=0;swimlaneHead=0;swimlaneBody=0;top=0;left=0;bottom=0;right=0;collapsible=0;dropTarget=0;fillColor=none;points=[[0,0.5],[1,0.5]];portConstraint=eastwest;" parent="2254" vertex="1"><mxGeometry width="182.5" height="30" as="geometry"/></mxCell><mxCell id="2256" value="Match" style="shape=partialRectangle;html=1;whiteSpace=wrap;connectable=0;overflow=hidden;fillColor=none;top=0;left=0;bottom=0;right=0;pointerEvents=1;" parent="2255" vertex="1"><mxGeometry width="92" height="30" as="geometry"><mxRectangle width="92" height="30" as="alternateBounds"/></mxGeometry></mxCell><mxCell id="2257" value="Actions" style="shape=partialRectangle;html=1;whiteSpace=wrap;connectable=0;overflow=hidden;fillColor=none;top=0;left=0;bottom=0;right=0;pointerEvents=1;" parent="2255" vertex="1"><mxGeometry x="92" width="91" height="30" as="geometry"><mxRectangle width="91" height="30" as="alternateBounds"/></mxGeometry></mxCell><mxCell id="2258" value="" style="shape=tableRow;horizontal=0;startSize=0;swimlaneHead=0;swimlaneBody=0;top=0;left=0;bottom=0;right=0;collapsible=0;dropTarget=0;fillColor=none;points=[[0,0.5],[1,0.5]];portConstraint=eastwest;" parent="2254" vertex="1"><mxGeometry y="30" width="182.5" height="80" as="geometry"/></mxCell><mxCell id="2259" value="mpls=slice_id,&lt;br&gt;from=vpn2 intf" style="shape=partialRectangle;html=1;whiteSpace=wrap;connectable=0;overflow=hidden;fillColor=none;top=0;left=0;bottom=0;right=0;pointerEvents=1;" parent="2258" vertex="1"><mxGeometry width="92" height="80" as="geometry"><mxRectangle width="92" height="80" as="alternateBounds"/></mxGeometry></mxCell><mxCell id="2260" value="forward s8,&amp;nbsp;enqueue slicequeue" style="shape=partialRectangle;html=1;whiteSpace=wrap;connectable=0;overflow=hidden;fillColor=none;top=0;left=0;bottom=0;right=0;pointerEvents=1;" parent="2258" vertex="1"><mxGeometry x="92" width="91" height="80" as="geometry"><mxRectangle width="91" height="80" as="alternateBounds"/></mxGeometry></mxCell><mxCell id="2261" value="" style="shape=tableRow;horizontal=0;startSize=0;swimlaneHead=0;swimlaneBody=0;top=0;left=0;bottom=0;right=0;collapsible=0;dropTarget=0;fillColor=none;points=[[0,0.5],[1,0.5]];portConstraint=eastwest;" parent="2254" vertex="1"><mxGeometry y="110" width="182.5" height="50" as="geometry"/></mxCell><mxCell id="2262" value="*" style="shape=partialRectangle;html=1;whiteSpace=wrap;connectable=0;overflow=hidden;fillColor=none;top=0;left=0;bottom=0;right=0;pointerEvents=1;" parent="2261" vertex="1"><mxGeometry width="92" height="50" as="geometry"><mxRectangle width="92" height="50" as="alternateBounds"/></mxGeometry></mxCell><mxCell id="2263" value="forward, enqueue default" style="shape=partialRectangle;html=1;whiteSpace=wrap;connectable=0;overflow=hidden;fillColor=none;top=0;left=0;bottom=0;right=0;pointerEvents=1;" parent="2261" vertex="1"><mxGeometry x="92" width="91" height="50" as="geometry"><mxRectangle width="91" height="50" as="alternateBounds"/></mxGeometry></mxCell><mxCell id="2264" value="" style="shape=table;startSize=0;container=1;collapsible=0;childLayout=tableLayout;fontColor=#080808;labelBackgroundColor=#FFFFFF;labelBorderColor=#050505;" parent="1" vertex="1"><mxGeometry x="1930.5" y="350" width="182.5" height="160" as="geometry"/></mxCell><mxCell id="2265" value="" style="shape=tableRow;horizontal=0;startSize=0;swimlaneHead=0;swimlaneBody=0;top=0;left=0;bottom=0;right=0;collapsible=0;dropTarget=0;fillColor=none;points=[[0,0.5],[1,0.5]];portConstraint=eastwest;" parent="2264" vertex="1"><mxGeometry width="182.5" height="30" as="geometry"/></mxCell><mxCell id="2266" value="Match" style="shape=partialRectangle;html=1;whiteSpace=wrap;connectable=0;overflow=hidden;fillColor=none;top=0;left=0;bottom=0;right=0;pointerEvents=1;" parent="2265" vertex="1"><mxGeometry width="92" height="30" as="geometry"><mxRectangle width="92" height="30" as="alternateBounds"/></mxGeometry></mxCell><mxCell id="2267" value="Actions" style="shape=partialRectangle;html=1;whiteSpace=wrap;connectable=0;overflow=hidden;fillColor=none;top=0;left=0;bottom=0;right=0;pointerEvents=1;" parent="2265" vertex="1"><mxGeometry x="92" width="91" height="30" as="geometry"><mxRectangle width="91" height="30" as="alternateBounds"/></mxGeometry></mxCell><mxCell id="2268" value="" style="shape=tableRow;horizontal=0;startSize=0;swimlaneHead=0;swimlaneBody=0;top=0;left=0;bottom=0;right=0;collapsible=0;dropTarget=0;fillColor=none;points=[[0,0.5],[1,0.5]];portConstraint=eastwest;" parent="2264" vertex="1"><mxGeometry y="30" width="182.5" height="80" as="geometry"/></mxCell><mxCell id="2269" value="mpls=slice_id,&lt;br&gt;from=s7 intf" style="shape=partialRectangle;html=1;whiteSpace=wrap;connectable=0;overflow=hidden;fillColor=none;top=0;left=0;bottom=0;right=0;pointerEvents=1;" parent="2268" vertex="1"><mxGeometry width="92" height="80" as="geometry"><mxRectangle width="92" height="80" as="alternateBounds"/></mxGeometry></mxCell><mxCell id="2270" value="forward s9, enqueue slicequeue" style="shape=partialRectangle;html=1;whiteSpace=wrap;connectable=0;overflow=hidden;fillColor=none;top=0;left=0;bottom=0;right=0;pointerEvents=1;" parent="2268" vertex="1"><mxGeometry x="92" width="91" height="80" as="geometry"><mxRectangle width="91" height="80" as="alternateBounds"/></mxGeometry></mxCell><mxCell id="2271" value="" style="shape=tableRow;horizontal=0;startSize=0;swimlaneHead=0;swimlaneBody=0;top=0;left=0;bottom=0;right=0;collapsible=0;dropTarget=0;fillColor=none;points=[[0,0.5],[1,0.5]];portConstraint=eastwest;" parent="2264" vertex="1"><mxGeometry y="110" width="182.5" height="50" as="geometry"/></mxCell><mxCell id="2272" value="*" style="shape=partialRectangle;html=1;whiteSpace=wrap;connectable=0;overflow=hidden;fillColor=none;top=0;left=0;bottom=0;right=0;pointerEvents=1;" parent="2271" vertex="1"><mxGeometry width="92" height="50" as="geometry"><mxRectangle width="92" height="50" as="alternateBounds"/></mxGeometry></mxCell><mxCell id="2273" value="forward, enqueue default" style="shape=partialRectangle;html=1;whiteSpace=wrap;connectable=0;overflow=hidden;fillColor=none;top=0;left=0;bottom=0;right=0;pointerEvents=1;" parent="2271" vertex="1"><mxGeometry x="92" width="91" height="50" as="geometry"><mxRectangle width="91" height="50" as="alternateBounds"/></mxGeometry></mxCell><mxCell id="2274" value="" style="shape=table;startSize=0;container=1;collapsible=0;childLayout=tableLayout;fontColor=#080808;labelBackgroundColor=#FFFFFF;labelBorderColor=#050505;" parent="1" vertex="1"><mxGeometry x="2120.5" y="350" width="182.5" height="160" as="geometry"/></mxCell><mxCell id="2275" value="" style="shape=tableRow;horizontal=0;startSize=0;swimlaneHead=0;swimlaneBody=0;top=0;left=0;bottom=0;right=0;collapsible=0;dropTarget=0;fillColor=none;points=[[0,0.5],[1,0.5]];portConstraint=eastwest;" parent="2274" vertex="1"><mxGeometry width="182.5" height="30" as="geometry"/></mxCell><mxCell id="2276" value="Match" style="shape=partialRectangle;html=1;whiteSpace=wrap;connectable=0;overflow=hidden;fillColor=none;top=0;left=0;bottom=0;right=0;pointerEvents=1;" parent="2275" vertex="1"><mxGeometry width="92" height="30" as="geometry"><mxRectangle width="92" height="30" as="alternateBounds"/></mxGeometry></mxCell><mxCell id="2277" value="Actions" style="shape=partialRectangle;html=1;whiteSpace=wrap;connectable=0;overflow=hidden;fillColor=none;top=0;left=0;bottom=0;right=0;pointerEvents=1;" parent="2275" vertex="1"><mxGeometry x="92" width="91" height="30" as="geometry"><mxRectangle width="91" height="30" as="alternateBounds"/></mxGeometry></mxCell><mxCell id="2278" value="" style="shape=tableRow;horizontal=0;startSize=0;swimlaneHead=0;swimlaneBody=0;top=0;left=0;bottom=0;right=0;collapsible=0;dropTarget=0;fillColor=none;points=[[0,0.5],[1,0.5]];portConstraint=eastwest;" parent="2274" vertex="1"><mxGeometry y="30" width="182.5" height="80" as="geometry"/></mxCell><mxCell id="2279" value="mpls=slice_id,&lt;br&gt;from=s8 intf" style="shape=partialRectangle;html=1;whiteSpace=wrap;connectable=0;overflow=hidden;fillColor=none;top=0;left=0;bottom=0;right=0;pointerEvents=1;" parent="2278" vertex="1"><mxGeometry width="92" height="80" as="geometry"><mxRectangle width="92" height="80" as="alternateBounds"/></mxGeometry></mxCell><mxCell id="2280" value="forward h2,&lt;br&gt;pop mpls, enqueue slicequeue" style="shape=partialRectangle;html=1;whiteSpace=wrap;connectable=0;overflow=hidden;fillColor=none;top=0;left=0;bottom=0;right=0;pointerEvents=1;" parent="2278" vertex="1"><mxGeometry x="92" width="91" height="80" as="geometry"><mxRectangle width="91" height="80" as="alternateBounds"/></mxGeometry></mxCell><mxCell id="2281" value="" style="shape=tableRow;horizontal=0;startSize=0;swimlaneHead=0;swimlaneBody=0;top=0;left=0;bottom=0;right=0;collapsible=0;dropTarget=0;fillColor=none;points=[[0,0.5],[1,0.5]];portConstraint=eastwest;" parent="2274" vertex="1"><mxGeometry y="110" width="182.5" height="50" as="geometry"/></mxCell><mxCell id="2282" value="*" style="shape=partialRectangle;html=1;whiteSpace=wrap;connectable=0;overflow=hidden;fillColor=none;top=0;left=0;bottom=0;right=0;pointerEvents=1;" parent="2281" vertex="1"><mxGeometry width="92" height="50" as="geometry"><mxRectangle width="92" height="50" as="alternateBounds"/></mxGeometry></mxCell><mxCell id="2283" value="forward, enqueue default" style="shape=partialRectangle;html=1;whiteSpace=wrap;connectable=0;overflow=hidden;fillColor=none;top=0;left=0;bottom=0;right=0;pointerEvents=1;" parent="2281" vertex="1"><mxGeometry x="92" width="91" height="50" as="geometry"><mxRectangle width="91" height="50" as="alternateBounds"/></mxGeometry></mxCell><mxCell id="2286" value="" style="shape=table;startSize=0;container=1;collapsible=0;childLayout=tableLayout;fontColor=#080808;labelBackgroundColor=#FFFFFF;labelBorderColor=#050505;" parent="1" vertex="1"><mxGeometry x="790" y="350" width="182.5" height="160" as="geometry"/></mxCell><mxCell id="2287" value="" style="shape=tableRow;horizontal=0;startSize=0;swimlaneHead=0;swimlaneBody=0;top=0;left=0;bottom=0;right=0;collapsible=0;dropTarget=0;fillColor=none;points=[[0,0.5],[1,0.5]];portConstraint=eastwest;" parent="2286" vertex="1"><mxGeometry width="182.5" height="30" as="geometry"/></mxCell><mxCell id="2288" value="Match" style="shape=partialRectangle;html=1;whiteSpace=wrap;connectable=0;overflow=hidden;fillColor=none;top=0;left=0;bottom=0;right=0;pointerEvents=1;" parent="2287" vertex="1"><mxGeometry width="92" height="30" as="geometry"><mxRectangle width="92" height="30" as="alternateBounds"/></mxGeometry></mxCell><mxCell id="2289" value="Actions" style="shape=partialRectangle;html=1;whiteSpace=wrap;connectable=0;overflow=hidden;fillColor=none;top=0;left=0;bottom=0;right=0;pointerEvents=1;" parent="2287" vertex="1"><mxGeometry x="92" width="91" height="30" as="geometry"><mxRectangle width="91" height="30" as="alternateBounds"/></mxGeometry></mxCell><mxCell id="2290" value="" style="shape=tableRow;horizontal=0;startSize=0;swimlaneHead=0;swimlaneBody=0;top=0;left=0;bottom=0;right=0;collapsible=0;dropTarget=0;fillColor=none;points=[[0,0.5],[1,0.5]];portConstraint=eastwest;" parent="2286" vertex="1"><mxGeometry y="30" width="182.5" height="80" as="geometry"/></mxCell><mxCell id="2291" value="from=s3 intf, &lt;br&gt;mpls=slice_id" style="shape=partialRectangle;html=1;whiteSpace=wrap;connectable=0;overflow=hidden;fillColor=none;top=0;left=0;bottom=0;right=0;pointerEvents=1;" parent="2290" vertex="1"><mxGeometry width="92" height="80" as="geometry"><mxRectangle width="92" height="80" as="alternateBounds"/></mxGeometry></mxCell><mxCell id="2292" value="encrypt and send to vpn2, nexthop s4" style="shape=partialRectangle;html=1;whiteSpace=wrap;connectable=0;overflow=hidden;fillColor=none;top=0;left=0;bottom=0;right=0;pointerEvents=1;" parent="2290" vertex="1"><mxGeometry x="92" width="91" height="80" as="geometry"><mxRectangle width="91" height="80" as="alternateBounds"/></mxGeometry></mxCell><mxCell id="2293" value="" style="shape=tableRow;horizontal=0;startSize=0;swimlaneHead=0;swimlaneBody=0;top=0;left=0;bottom=0;right=0;collapsible=0;dropTarget=0;fillColor=none;points=[[0,0.5],[1,0.5]];portConstraint=eastwest;" parent="2286" vertex="1"><mxGeometry y="110" width="182.5" height="50" as="geometry"/></mxCell><mxCell id="2294" value="*" style="shape=partialRectangle;html=1;whiteSpace=wrap;connectable=0;overflow=hidden;fillColor=none;top=0;left=0;bottom=0;right=0;pointerEvents=1;" parent="2293" vertex="1"><mxGeometry width="92" height="50" as="geometry"><mxRectangle width="92" height="50" as="alternateBounds"/></mxGeometry></mxCell><mxCell id="2295" value="DROP" style="shape=partialRectangle;html=1;whiteSpace=wrap;connectable=0;overflow=hidden;fillColor=none;top=0;left=0;bottom=0;right=0;pointerEvents=1;" parent="2293" vertex="1"><mxGeometry x="92" width="91" height="50" as="geometry"><mxRectangle width="91" height="50" as="alternateBounds"/></mxGeometry></mxCell><mxCell id="2296" value="" style="shape=table;startSize=0;container=1;collapsible=0;childLayout=tableLayout;fontColor=#080808;labelBackgroundColor=#FFFFFF;labelBorderColor=#050505;" parent="1" vertex="1"><mxGeometry x="1550" y="350" width="182.5" height="160" as="geometry"/></mxCell><mxCell id="2297" value="" style="shape=tableRow;horizontal=0;startSize=0;swimlaneHead=0;swimlaneBody=0;top=0;left=0;bottom=0;right=0;collapsible=0;dropTarget=0;fillColor=none;points=[[0,0.5],[1,0.5]];portConstraint=eastwest;" parent="2296" vertex="1"><mxGeometry width="182.5" height="30" as="geometry"/></mxCell><mxCell id="2298" value="Match" style="shape=partialRectangle;html=1;whiteSpace=wrap;connectable=0;overflow=hidden;fillColor=none;top=0;left=0;bottom=0;right=0;pointerEvents=1;" parent="2297" vertex="1"><mxGeometry width="92" height="30" as="geometry"><mxRectangle width="92" height="30" as="alternateBounds"/></mxGeometry></mxCell><mxCell id="2299" value="Actions" style="shape=partialRectangle;html=1;whiteSpace=wrap;connectable=0;overflow=hidden;fillColor=none;top=0;left=0;bottom=0;right=0;pointerEvents=1;" parent="2297" vertex="1"><mxGeometry x="92" width="91" height="30" as="geometry"><mxRectangle width="91" height="30" as="alternateBounds"/></mxGeometry></mxCell><mxCell id="2300" value="" style="shape=tableRow;horizontal=0;startSize=0;swimlaneHead=0;swimlaneBody=0;top=0;left=0;bottom=0;right=0;collapsible=0;dropTarget=0;fillColor=none;points=[[0,0.5],[1,0.5]];portConstraint=eastwest;" parent="2296" vertex="1"><mxGeometry y="30" width="182.5" height="80" as="geometry"/></mxCell><mxCell id="2301" value="from=s6 intf,&lt;br&gt;mpls=tunnel_id" style="shape=partialRectangle;html=1;whiteSpace=wrap;connectable=0;overflow=hidden;fillColor=none;top=0;left=0;bottom=0;right=0;pointerEvents=1;" parent="2300" vertex="1"><mxGeometry width="92" height="80" as="geometry"><mxRectangle width="92" height="80" as="alternateBounds"/></mxGeometry></mxCell><mxCell id="2302" value="receive and decrypt data from vpn1, &lt;br&gt;send h2, nexthop s7" style="shape=partialRectangle;html=1;whiteSpace=wrap;connectable=0;overflow=hidden;fillColor=none;top=0;left=0;bottom=0;right=0;pointerEvents=1;" parent="2300" vertex="1"><mxGeometry x="92" width="91" height="80" as="geometry"><mxRectangle width="91" height="80" as="alternateBounds"/></mxGeometry></mxCell><mxCell id="2303" value="" style="shape=tableRow;horizontal=0;startSize=0;swimlaneHead=0;swimlaneBody=0;top=0;left=0;bottom=0;right=0;collapsible=0;dropTarget=0;fillColor=none;points=[[0,0.5],[1,0.5]];portConstraint=eastwest;" parent="2296" vertex="1"><mxGeometry y="110" width="182.5" height="50" as="geometry"/></mxCell><mxCell id="2304" value="*" style="shape=partialRectangle;html=1;whiteSpace=wrap;connectable=0;overflow=hidden;fillColor=none;top=0;left=0;bottom=0;right=0;pointerEvents=1;" parent="2303" vertex="1"><mxGeometry width="92" height="50" as="geometry"><mxRectangle width="92" height="50" as="alternateBounds"/></mxGeometry></mxCell><mxCell id="2305" value="DROP" style="shape=partialRectangle;html=1;whiteSpace=wrap;connectable=0;overflow=hidden;fillColor=none;top=0;left=0;bottom=0;right=0;pointerEvents=1;" parent="2303" vertex="1"><mxGeometry x="92" width="91" height="50" as="geometry"><mxRectangle width="91" height="50" as="alternateBounds"/></mxGeometry></mxCell></root></mxGraphModel></diagram></mxfile>